<svg width="64" height="64" viewBox="0 0 64 64" fill="none" xmlns="http://www.w3.org/2000/svg">
  <rect width="64" height="64" rx="18" fill="#F5F5F7" />
  <path
    d="M20 21.5C20 17.3579 23.3579 14 27.5 14H36.5C40.6421 14 44 17.3579 44 21.5C44 25.6421 40.6421 29 36.5 29H27.5C23.3579 29 20 25.6421 20 21.5Z"
    fill="#0071E3"
  />
  <path
    d="M16 40C16 32.268 22.268 26 30 26H34C41.732 26 48 32.268 48 40V41C48 46.5228 43.5228 51 38 51H26C20.4772 51 16 46.5228 16 41V40Z"
    fill="#1D1D1F"
    fill-opacity="0.9"
  />
</svg>
